<svg width="51" height="50" viewBox="0 0 51 50" fill="none" xmlns="http://www.w3.org/2000/svg">
<g clip-path="url(#clip0_8_116)">
<path d="M50.4886 12.6944C50.4461 12.451 50.2857 12.2447 50.0602 12.1433L31.7018 3.88034C31.4345 3.75989 31.1213 3.80739 30.9018 4.00193L25.5 8.7833L20.0982 4.00193C19.8789 3.8075 19.5655 3.75989 19.2983 3.88034L0.93966 12.1433C0.714433 12.2447 0.553864 12.451 0.511251 12.6944C0.468637 12.9376 0.549205 13.1862 0.726478 13.3583L6.52568 18.9835L3.25591 24.7569C3.05352 25.1144 3.1783 25.5683 3.53511 25.7718L6.71284 27.5855V35.0026C6.71284 35.2688 6.85466 35.5148 7.08489 35.6478L25.1267 46.0853C25.2423 46.152 25.371 46.1856 25.5001 46.1856C25.6232 46.1856 25.7461 46.1543 25.8576 46.0933C25.8574 46.0937 25.8567 46.0944 25.8566 46.0949L43.9151 35.648C44.1453 35.5149 44.2872 35.2689 44.2872 35.0027V27.5856L47.4651 25.7719C47.8219 25.5684 47.9466 25.1145 47.7441 24.757L44.4745 18.9836L50.2735 13.3584C50.4508 13.1862 50.5315 12.9376 50.4886 12.6944ZM32.1605 24.269L26.2455 20.8427V10.9883L41.9419 18.8797L32.1605 24.269ZM9.05807 18.8798L24.7548 10.9883V20.8427L18.8395 24.269L9.05807 18.8798ZM2.55261 13.0524L19.4707 5.43784L24.1814 9.60727L7.59693 17.9452L2.55261 13.0524ZM4.91955 24.8453L7.74386 19.8582L24.3814 29.0247L20.6901 33.8459L4.91955 24.8453ZM24.7545 44.1474L8.20375 34.5726V28.4365L20.5166 35.4636C20.6326 35.5299 20.7597 35.5617 20.8857 35.5617C21.111 35.5617 21.3325 35.4594 21.4782 35.2693L24.7547 30.9899L24.7545 44.1474ZM25.5 27.9387L20.3641 25.1091L25.5 22.1341L30.6359 25.1091L25.5 27.9387ZM42.7961 34.5726L26.2455 44.1474V30.9898L29.5219 35.2692C29.6674 35.4593 29.8889 35.5616 30.1144 35.5616C30.2401 35.5616 30.3675 35.5298 30.4835 35.4635L42.7961 28.4364V34.5726ZM46.0806 24.8453L30.31 33.8458L26.6186 29.0245L43.2563 19.8581L46.0806 24.8453ZM43.4032 17.9452L26.8186 9.60727L31.5291 5.43784L48.4474 13.0524L43.4032 17.9452Z" fill="white"/>
</g>
<defs>
<clipPath id="clip0_8_116">
<rect width="50" height="50" fill="white" transform="translate(0.5)"/>
</clipPath>
</defs>
</svg>