<?xml version="1.0" encoding="UTF-8"?>
<!DOCTYPE svg PUBLIC "-//W3C//DTD SVG 1.1//EN" "http://www.w3.org/Graphics/SVG/1.1/DTD/svg11.dtd">
<!-- Creator: CorelDRAW 2019 (64-Bit) -->
<svg xmlns="http://www.w3.org/2000/svg" xml:space="preserve" width="215.9mm" height="279.4mm" version="1.1" style="shape-rendering:geometricPrecision; text-rendering:geometricPrecision; image-rendering:optimizeQuality; fill-rule:evenodd; clip-rule:evenodd"
viewBox="0 0 21590 27940"
 xmlns:xlink="http://www.w3.org/1999/xlink">
 <defs>
  <style type="text/css">
   <![CDATA[
    .str0 {stroke:#00AFEF;stroke-width:7.62;stroke-miterlimit:22.9256}
    .fil1 {fill:#00AFEF}
    .fil2 {fill:#00AFEF;fill-rule:nonzero}
    .fil0 {fill:#00AFEF;fill-rule:nonzero}
   ]]>
  </style>
 </defs>
 <g id="Capa_x0020_1">
  <metadata id="CorelCorpID_0Corel-Layer"/>
  <g id="_1954176274384">
   <path class="fil0 str0" d="M8782.81 10658.67c-17.64,-39.59 3.97,-106.25 37.48,-131.63 86.27,-72.4 161.25,-9.64 166.35,0 441.47,833.94 763.1,1473.06 899.47,1746.03 50.72,251.64 40.95,212.19 74.96,405.55 -188.95,-198.39 -220.01,-250.42 -347.13,-397.93 -26.29,-26.29 -796.99,-1553.04 -831.13,-1622.02z"/>
   <path class="fil1 str0" d="M9316.21 11873.83c133.83,242.18 115.69,214.69 232.71,408.53 -265.44,874.95 -377.03,1134.77 -657.78,2014.51 -245.48,-63.94 -279.29,-234.46 -183.01,-528.43 282.18,-896.22 435.45,-1363.86 608.08,-1894.61z"/>
   <path class="fil1 str0" d="M9492.12 11311.11c76.44,-249.89 167.2,-503.08 243.64,-752.97 72.02,-148.47 187.87,-163.29 335.14,-121.27 864.31,276.34 1655.86,524.03 2520.17,800.37 211.66,74.23 222.69,227.83 178.59,370.42 -344.67,1087.73 -689.35,2175.47 -1034.02,3263.2 -150.67,303.55 -283.69,238.87 -438.77,189.62 278.55,-876.07 569.22,-1717.96 847.77,-2594.03 -233.71,-70.56 -479.56,-175.3 -713.27,-245.86 60.27,-214.6 153.6,-449.05 213.87,-663.65 -564.44,-194.03 -1125.58,-380.35 -1690.02,-574.38 -64.68,235.19 -165.73,482.5 -230.41,717.69 -72.79,-130.82 -159.9,-258.32 -232.69,-389.14zm2218.97 270.98c145.52,269 291.05,537.99 436.57,806.99 -210.2,-67.62 -420.4,-135.23 -630.6,-202.85 64.68,-201.38 129.35,-402.76 194.03,-604.14z"/>
   <polygon class="fil2" points="11833.41,12714.62 9898.8,12090.13 9865.14,11973.67 11863.87,12619.7 "/>
   <polygon class="fil2" points="11731.99,13027.71 10069.77,12475.76 10044.85,12374.96 11762.45,12932.79 "/>
   <polygon class="fil2" points="11617.33,13402.54 9607.93,12753.21 9637.56,12658.03 11647.79,13307.62 "/>
   <polygon class="fil2" points="11510.91,13737.5 9510.03,13067.6 9540.53,12972.68 11542.55,13642.96 "/>
   <polygon class="fil2" points="11396.96,14105.1 9394.24,13437.64 9425.88,13343.1 11425.46,14013.58 "/>
   <polygon class="fil2" points="11296.14,14428.9 9285.68,13788.1 9315.43,13692.56 11324.92,14336.47 "/>
   <polygon class="fil2" points="11182.12,14795.09 9176.3,14139.37 9205.99,14044.02 11211.79,14699.79 "/>
   <path class="fil1 str0" d="M12911.3 11671.8c-356.06,1106.11 -712.12,2212.21 -1068.18,3318.32 -23.88,46.31 -147,121.27 -256.87,142.22 87.83,-56.6 148.11,-90.03 200.65,-189.62 0,0 1053.99,-3271.01 1055.09,-3296.36 49.3,-169.48 -22.05,-321.92 -22.05,-321.92 106.52,83.81 117.13,220.54 91.36,347.36z"/>
  </g>
 </g>
</svg>
